<?xml version="1.0" encoding="UTF-8"?> <svg xmlns="http://www.w3.org/2000/svg" width="174" height="40" viewBox="0 0 174 40" fill="none"><path fill-rule="evenodd" clip-rule="evenodd" d="M101.499 30.25C100.365 30.25 99.3405 29.9583 98.4238 29.375C97.5238 28.7917 96.8155 27.9833 96.2988 26.95C95.7822 25.9 95.5238 24.7083 95.5238 23.375C95.5238 22.0417 95.7822 20.8583 96.2988 19.825C96.8155 18.775 97.5238 17.95 98.4238 17.35C99.3405 16.75 100.374 16.45 101.524 16.45C102.124 16.45 102.699 16.5417 103.249 16.725C103.815 16.9083 104.315 17.1583 104.749 17.475C104.989 17.6442 105.206 17.8253 105.399 18.0183V11.5H109.424V30H105.674L105.569 28.6074C105.337 28.8647 105.055 29.1039 104.724 29.325C104.29 29.6083 103.799 29.8333 103.249 30C102.699 30.1667 102.115 30.25 101.499 30.25ZM102.499 26.925C103.115 26.925 103.64 26.7833 104.074 26.5C104.524 26.2 104.874 25.7833 105.124 25.25C105.374 24.7167 105.499 24.0917 105.499 23.375C105.499 22.6417 105.374 22.0083 105.124 21.475C104.874 20.9417 104.524 20.5333 104.074 20.25C103.64 19.95 103.115 19.8 102.499 19.8C101.899 19.8 101.374 19.95 100.924 20.25C100.49 20.5333 100.149 20.9417 99.8988 21.475C99.6488 22.0083 99.5238 22.6417 99.5238 23.375C99.5238 24.0917 99.6488 24.7167 99.8988 25.25C100.149 25.7833 100.49 26.2 100.924 26.5C101.374 26.7833 101.899 26.925 102.499 26.925Z" fill="#333333"></path><path d="M46.4 30L41.125 12.5H45.475L48.125 21.7C48.275 22.2333 48.4 22.7833 48.5 23.35C48.5432 23.5874 48.5832 23.8187 48.6202 24.0437C48.6782 23.6752 48.7464 23.3273 48.825 23C48.925 22.5667 49.05 22.1333 49.2 21.7L51.825 14.775H55.25L57.825 21.7C58.025 22.25 58.1833 22.775 58.3 23.275C58.3632 23.5042 58.4189 23.7277 58.4672 23.9456C58.477 23.8554 58.488 23.7652 58.5 23.675C58.5333 23.4083 58.5833 23.1167 58.65 22.8C58.7167 22.4667 58.8083 22.0917 58.925 21.675L61.525 12.5H65.8L60.525 30H57.275L53.3573 20.5693L49.75 30H46.4Z" fill="#333333"></path><path fill-rule="evenodd" clip-rule="evenodd" d="M72.4414 30.25C71.0747 30.25 69.8497 29.9583 68.7664 29.375C67.6831 28.775 66.8331 27.9583 66.2164 26.925C65.5997 25.875 65.2914 24.6917 65.2914 23.375C65.2914 22.025 65.5997 20.8333 66.2164 19.8C66.8331 18.75 67.6831 17.9333 68.7664 17.35C69.8497 16.75 71.0747 16.45 72.4414 16.45C73.8247 16.45 75.0497 16.75 76.1164 17.35C77.1997 17.9333 78.0497 18.75 78.6664 19.8C79.2831 20.8333 79.5914 22.025 79.5914 23.375C79.5914 24.6917 79.2831 25.875 78.6664 26.925C78.0497 27.9583 77.1997 28.775 76.1164 29.375C75.0497 29.9583 73.8247 30.25 72.4414 30.25ZM72.4414 26.8C73.0414 26.8 73.5664 26.65 74.0164 26.35C74.4831 26.05 74.8497 25.6417 75.1164 25.125C75.3831 24.6083 75.5081 24.025 75.4914 23.375C75.5081 22.6917 75.3831 22.0917 75.1164 21.575C74.8497 21.0417 74.4831 20.6333 74.0164 20.35C73.5664 20.05 73.0414 19.9 72.4414 19.9C71.8581 19.9 71.3331 20.05 70.8664 20.35C70.3997 20.65 70.0331 21.0583 69.7664 21.575C69.4997 22.0917 69.3664 22.6917 69.3664 23.375C69.3664 24.025 69.4997 24.6083 69.7664 25.125C70.0331 25.6417 70.3997 26.05 70.8664 26.35C71.3331 26.65 71.8581 26.8 72.4414 26.8Z" fill="#333333"></path><path fill-rule="evenodd" clip-rule="evenodd" d="M83.8826 29.375C84.966 29.9583 86.1909 30.25 87.5576 30.25C88.941 30.25 90.166 29.9583 91.2326 29.375C92.3159 28.775 93.166 27.9583 93.7826 26.925C94.3993 25.875 94.7076 24.6917 94.7076 23.375C94.7076 22.025 94.3993 20.8333 93.7826 19.8C93.166 18.75 92.3159 17.9333 91.2326 17.35C90.166 16.75 88.941 16.45 87.5576 16.45C86.1909 16.45 84.966 16.75 83.8826 17.35C82.7993 17.9333 81.9493 18.75 81.3326 19.8C80.716 20.8333 80.4076 22.025 80.4076 23.375C80.4076 24.6917 80.716 25.875 81.3326 26.925C81.9493 27.9583 82.7993 28.775 83.8826 29.375ZM89.1326 26.35C88.6826 26.65 88.1576 26.8 87.5576 26.8C86.9743 26.8 86.4493 26.65 85.9826 26.35C85.5159 26.05 85.1493 25.6417 84.8826 25.125C84.616 24.6083 84.4826 24.025 84.4826 23.375C84.4826 22.6917 84.616 22.0917 84.8826 21.575C85.1493 21.0583 85.5159 20.65 85.9826 20.35C86.4493 20.05 86.9743 19.9 87.5576 19.9C88.1576 19.9 88.6826 20.05 89.1326 20.35C89.5993 20.6333 89.966 21.0417 90.2326 21.575C90.4993 22.0917 90.6243 22.6917 90.6076 23.375C90.6243 24.025 90.4993 24.6083 90.2326 25.125C89.966 25.6417 89.5993 26.05 89.1326 26.35Z" fill="#333333"></path><path d="M121.158 20.6329L116.156 12.5H112.331V30H116.506V24.7C116.506 23.0333 116.465 21.6083 116.381 20.425C116.366 20.1422 116.346 19.8617 116.323 19.5835L120.231 25.725H121.931L125.97 19.4679C125.936 19.8347 125.906 20.2037 125.881 20.575C125.815 21.7917 125.781 23.1667 125.781 24.7V30H129.931V12.5H126.231L121.158 20.6329Z" fill="#333333"></path><path fill-rule="evenodd" clip-rule="evenodd" d="M137.904 30.25C136.804 30.25 135.813 29.95 134.929 29.35C134.046 28.75 133.346 27.9333 132.829 26.9C132.313 25.85 132.054 24.6667 132.054 23.35C132.054 22 132.313 20.8083 132.829 19.775C133.346 18.725 134.046 17.9083 134.929 17.325C135.829 16.7417 136.854 16.45 138.004 16.45C138.654 16.45 139.238 16.5417 139.754 16.725C140.288 16.9083 140.754 17.1667 141.154 17.5C141.462 17.7337 141.729 17.9992 141.954 18.2965V16.725H145.954V30H141.904V28.4134C141.652 28.713 141.36 28.9835 141.029 29.225C140.613 29.5417 140.138 29.7917 139.604 29.975C139.071 30.1583 138.504 30.25 137.904 30.25ZM139.004 26.825C139.621 26.825 140.146 26.6833 140.579 26.4C141.029 26.1 141.379 25.6917 141.629 25.175C141.879 24.6583 142.004 24.05 142.004 23.35C142.004 22.6333 141.879 22.0167 141.629 21.5C141.379 20.9833 141.029 20.5833 140.579 20.3C140.146 20 139.621 19.85 139.004 19.85C138.421 19.85 137.904 20 137.454 20.3C137.004 20.5833 136.654 20.9833 136.404 21.5C136.171 22.0167 136.054 22.6333 136.054 23.35C136.054 24.05 136.171 24.6583 136.404 25.175C136.654 25.6917 137.004 26.1 137.454 26.4C137.904 26.6833 138.421 26.825 139.004 26.825Z" fill="#333333"></path><path d="M152.541 18.7782L152.458 16.725H148.633V30H152.683V23.375C152.683 22.975 152.742 22.6167 152.858 22.3C152.992 21.9833 153.167 21.7083 153.383 21.475C153.617 21.2417 153.883 21.0667 154.183 20.95C154.5 20.8167 154.842 20.75 155.208 20.75C155.542 20.75 155.858 20.7917 156.158 20.875C156.475 20.9417 156.725 21.025 156.908 21.125L157.983 16.7C157.783 16.6167 157.55 16.5583 157.283 16.525C157.033 16.475 156.758 16.45 156.458 16.45C155.775 16.45 155.117 16.6167 154.483 16.95C153.867 17.2833 153.333 17.7333 152.883 18.3C152.761 18.4544 152.647 18.6138 152.541 18.7782Z" fill="#333333"></path><path d="M168.583 29.7C168.967 30.0833 169.5 30.275 170.183 30.275C170.817 30.275 171.333 30.0667 171.733 29.65C172.15 29.2333 172.358 28.6917 172.358 28.025C172.358 27.2917 172.167 26.7333 171.783 26.35C171.4 25.95 170.867 25.75 170.183 25.75C169.533 25.75 169.008 25.9667 168.608 26.4C168.225 26.8167 168.033 27.3583 168.033 28.025C168.033 28.7417 168.217 29.3 168.583 29.7Z" fill="#333333"></path><path d="M158.398 20.25H160.748V30H164.773V20.25H167.323V16.725H164.773V13.375H160.748V16.725H158.398V20.25Z" fill="#333333"></path><g clip-path="url(#clip0_14000_19126)"><path d="M20.6737 11.5171L18.3212 5.33714C18.1698 4.93943 17.8458 4.6784 17.4731 4.60377L14.4435 3.68978C14.1732 3.6025 13.8676 3.61731 13.5792 3.75486L6.74635 7.01396C6.11741 7.31395 5.80851 8.08508 6.05641 8.73632L8.74962 15.8114C8.99753 16.4626 8.68863 17.2337 8.05968 17.5337L1.22683 20.7928C0.597885 21.0928 0.288988 21.8639 0.536891 22.5152L3.2301 29.5902C3.40136 30.0401 3.79356 30.3151 4.22707 30.3432L7.04851 31.2164C7.33442 31.3268 7.66249 31.3202 7.97208 31.1725L13.579 28.4981L15.9315 34.6781C16.0699 35.0416 16.3525 35.291 16.6846 35.3882V35.3895L19.7535 36.3057C20.0511 36.4194 20.3869 36.3971 20.6735 36.2604L27.5063 33.0013C28.1353 32.7013 28.4442 31.9302 28.1963 31.279L25.5031 24.2039C25.2552 23.5527 25.5641 22.7816 26.193 22.4816L33.0259 19.2225C33.6548 18.9225 33.9637 18.1513 33.7158 17.5001L31.0226 10.4251C30.877 10.0425 30.5717 9.78647 30.2171 9.70106L27.1319 8.77327V8.77378C26.8648 8.69111 26.5644 8.70742 26.2806 8.84278L20.6737 11.5171Z" fill="#6351AD"></path><path d="M15.1669 4.39087C14.919 3.73963 14.2082 3.45488 13.5792 3.75488L6.74635 7.01398C6.11741 7.31397 5.80851 8.0851 6.05641 8.73634L8.74962 15.8114C8.99753 16.4626 8.68863 17.2337 8.05968 17.5337L1.22683 20.7928C0.597885 21.0928 0.288988 21.864 0.536891 22.5152L3.2301 29.5902C3.478 30.2415 4.18883 30.5262 4.81778 30.2262L11.6506 26.9671C12.2796 26.6671 12.9904 26.9519 13.2383 27.6031L15.9315 34.6782C16.1794 35.3294 16.8903 35.6141 17.5192 35.3142L24.3521 32.0551C24.981 31.7551 25.2899 30.9839 25.042 30.3327L22.3488 23.2576C22.1009 22.6064 22.4098 21.8353 23.0387 21.5353L29.8716 18.2762C30.5005 17.9762 30.8094 17.2051 30.5615 16.5538L27.8683 9.47879C27.6204 8.82755 26.9096 8.5428 26.2806 8.8428L19.4478 12.1019C18.8188 12.4019 18.108 12.1171 17.8601 11.4659L15.1669 4.39087Z" fill="url(#paint0_linear_14000_19126)"></path><path d="M10.6915 8.31829L10.1455 12.7173C10.0842 13.2109 10.5425 13.5629 10.9767 13.3558L14.7353 11.5631C15.1695 11.356 15.2601 10.7421 14.8996 10.4497L11.687 7.84346C11.3161 7.54259 10.7545 7.81047 10.6915 8.31829Z" fill="url(#paint1_linear_14000_19126)"></path><path d="M19.4114 31.2255L16.1988 28.6193C15.8383 28.3269 15.9289 27.713 16.3631 27.5059L20.1217 25.7132C20.5559 25.5061 21.0142 25.8581 20.9529 26.3517L20.4069 30.7507C20.3439 31.2585 19.7823 31.5264 19.4114 31.2255Z" fill="url(#paint2_linear_14000_19126)"></path><path d="M8.80734 25.6584L4.68384 25.326C4.20782 25.2876 3.98646 24.7061 4.29146 24.2952L6.93347 20.7358C7.22989 20.3364 7.80447 20.3981 7.9756 20.8477L9.45708 24.7395C9.62821 25.1891 9.26997 25.6957 8.80734 25.6584Z" fill="url(#paint3_linear_14000_19126)"></path><path d="M26.8069 14.7738L24.1649 18.3332C23.8685 18.7326 23.2939 18.6709 23.1228 18.2213L21.6413 14.3295C21.4702 13.8799 21.8284 13.3733 22.291 13.4106L26.4145 13.743C26.8906 13.7814 27.1119 14.3629 26.8069 14.7738Z" fill="url(#paint4_linear_14000_19126)"></path></g><defs><linearGradient id="paint0_linear_14000_19126" x1="17.7886" y1="-1.02998" x2="6.90627" y2="40.2913" gradientUnits="userSpaceOnUse"><stop stop-color="#C2B8FF"></stop><stop offset="1" stop-color="#995AFF"></stop></linearGradient><linearGradient id="paint1_linear_14000_19126" x1="15.4387" y1="1.54056" x2="15.4387" y2="37.6967" gradientUnits="userSpaceOnUse"><stop stop-color="#A670FF"></stop><stop offset="1" stop-color="#543CB5"></stop></linearGradient><linearGradient id="paint2_linear_14000_19126" x1="15.4387" y1="1.54056" x2="15.4387" y2="37.6967" gradientUnits="userSpaceOnUse"><stop stop-color="#A670FF"></stop><stop offset="1" stop-color="#543CB5"></stop></linearGradient><linearGradient id="paint3_linear_14000_19126" x1="15.4387" y1="1.54056" x2="15.4387" y2="37.6967" gradientUnits="userSpaceOnUse"><stop stop-color="#A670FF"></stop><stop offset="1" stop-color="#543CB5"></stop></linearGradient><linearGradient id="paint4_linear_14000_19126" x1="15.4387" y1="1.54056" x2="15.4387" y2="37.6967" gradientUnits="userSpaceOnUse"><stop stop-color="#A670FF"></stop><stop offset="1" stop-color="#543CB5"></stop></linearGradient><clipPath id="clip0_14000_19126"><rect width="34" height="34" fill="white" transform="translate(0 3)"></rect></clipPath></defs></svg> 